
<svg width="22px" height="20px" viewBox="74 0 22 20" version="1.1" xmlns="http://www.w3.org/2000/svg" xmlns:xlink="http://www.w3.org/1999/xlink">
    <!-- Generator: Sketch 40.3 (33839) - http://www.bohemiancoding.com/sketch -->
    <desc>Created with Sketch.</desc>
    <defs></defs>
    <path d="M95.0197732,7.45498831 C95.0197732,7.09133015 94.6227987,6.94586703 94.3250681,6.89737957 L88.0975324,6.01247826 L85.3063067,0.49699869 C85.1946575,0.266682506 84.9837645,0 84.6984393,0 C84.413114,0 84.202221,0.266682506 84.0905726,0.49699869 L81.2993461,6.01247826 L75.0718104,6.89737957 C74.7616744,6.94586703 74.3771053,7.09133015 74.3771053,7.45498831 C74.3771053,7.67318263 74.538376,7.87925581 74.6872414,8.03684079 L79.2028255,12.3280046 L78.1359567,18.3889711 C78.1235514,18.4738249 78.111146,18.5465561 78.111146,18.6314099 C78.111146,18.9465798 78.2724167,19.2375068 78.6321742,19.2375068 C78.8058511,19.2375068 78.9671218,19.1768967 79.1283925,19.0920429 L84.6984393,16.2312673 L90.268486,19.0920429 C90.4173514,19.1768967 90.5910274,19.2375068 90.7647043,19.2375068 C91.1244618,19.2375068 91.2733271,18.9465798 91.2733271,18.6314099 C91.2733271,18.5465561 91.2733271,18.4738249 91.2609218,18.3889711 L90.1940537,12.3280046 L94.6972318,8.03684079 C94.8585025,7.87925581 95.0197732,7.67318263 95.0197732,7.45498831 L95.0197732,7.45498831 Z" id="Shape-Copy-3" stroke="none" fill="#EAEAEA" fill-rule="evenodd"></path>
</svg>
