
<svg width="15px" height="14px" viewBox="20 10 15 14" version="1.1" xmlns="http://www.w3.org/2000/svg" xmlns:xlink="http://www.w3.org/1999/xlink">
    <!-- Generator: Sketch 40.3 (33839) - http://www.bohemiancoding.com/sketch -->
    <desc>Created with Sketch.</desc>
    <defs></defs>
    <path d="M34.7911086,13.5744681 C34.5912287,13.2765957 34.191469,13.0780142 33.7917093,13.0780142 L24.4972965,13.0780142 L24.0975368,11.0921986 C23.9975969,10.4964539 23.2980175,10 22.6983779,10 L20,10 L20,11.5886525 L22.598438,11.5886525 L24.0975368,18.7375887 C24.1974768,19.3333333 24.8970562,19.8297872 25.4966958,19.8297872 L31.7929109,19.8297872 C32.3925504,19.8297872 33.0921299,19.4326241 33.2920097,18.8368794 L34.8910485,14.6666667 C35.0909283,14.2695035 34.9909884,13.8723404 34.7911086,13.5744681 L34.7911086,13.5744681 Z M31.8928508,18.3404255 L25.6965756,18.3404255 L24.8970562,14.7659574 L33.1920698,14.7659574 L31.8928508,18.3404255 L31.8928508,18.3404255 Z M26.0963353,20.822695 C25.196876,20.822695 24.4972965,21.5177305 24.4972965,22.4113475 C24.4972965,23.3049645 25.196876,24 26.0963353,24 C26.9957946,24 27.6953741,23.3049645 27.6953741,22.4113475 C27.6953741,21.5177305 26.9957946,20.822695 26.0963353,20.822695 L26.0963353,20.822695 Z M31.692971,20.822695 C30.7935117,20.822695 30.0939322,21.5177305 30.0939322,22.4113475 C30.0939322,23.3049645 30.7935117,24 31.692971,24 C32.5924303,24 33.2920097,23.3049645 33.2920097,22.4113475 C33.2920097,21.5177305 32.5924303,20.822695 31.692971,20.822695 L31.692971,20.822695 Z" id="Icon" stroke="none" fill="#000" fill-rule="evenodd"></path>
</svg>
