
<svg width="46px" height="44px" viewBox="-1 -1 46 44" version="1.1" xmlns="http://www.w3.org/2000/svg" xmlns:xlink="http://www.w3.org/1999/xlink">
    <!-- Generator: Sketch 40.3 (33839) - http://www.bohemiancoding.com/sketch -->
    <desc>Created with Sketch.</desc>
    <defs></defs>
    <g id="present-box" stroke="none" stroke-width="1" fill="none" fill-rule="evenodd">
        <g id="Group" stroke="#000000">
            <path d="M0.916666667,11.8695652 L43.0833333,11.8695652 L43.0833333,19.173913 L0.916666667,19.173913 L0.916666667,11.8695652 Z M2.75,19.173913 L41.25,19.173913 L41.25,41.0869565 L2.75,41.0869565 L2.75,19.173913 Z M15.5833333,11.8695652 L15.5833333,41.0869565 L15.5833333,11.8695652 Z M28.4166667,41.0869565 L28.4166667,11.8695652 L28.4166667,41.0869565 Z" id="Shape"></path>
            <path d="M32.3711667,7.79373913 C30.5818333,9.57782609 22,11.6668696 22,11.6668696 C22,11.6668696 24.0991667,3.11895652 25.8885,1.33852174 C27.6796667,-0.445565217 30.5818333,-0.445565217 32.3711667,1.33852174 C34.1605,3.11895652 34.1605,6.01147826 32.3711667,7.79373913 L32.3711667,7.79373913 Z M11.6288333,7.79373913 C13.4181667,9.57782609 22,11.6668696 22,11.6668696 C22,11.6668696 19.899,3.11895652 18.1115,1.33852174 C16.3203333,-0.445565217 13.4181667,-0.445565217 11.6288333,1.33852174 C9.8395,3.11895652 9.83766667,6.01147826 11.6288333,7.79373913 L11.6288333,7.79373913 Z" id="Shape"></path>
        </g>
    </g>
</svg>
