
<svg width="21px" height="20px" viewBox="25 0 21 20" version="1.1" xmlns="http://www.w3.org/2000/svg" xmlns:xlink="http://www.w3.org/1999/xlink">
    <!-- Generator: Sketch 40.3 (33839) - http://www.bohemiancoding.com/sketch -->
    <desc>Created with Sketch.</desc>
    <defs></defs>
    <path d="M45.6426678,7.45498831 C45.6426678,7.09133015 45.2456934,6.94586703 44.9479628,6.89737957 L38.720427,6.01247826 L35.9292013,0.49699869 C35.8175522,0.266682506 35.6066592,0 35.3213339,0 C35.0360087,0 34.8251157,0.266682506 34.7134673,0.49699869 L31.9222408,6.01247826 L25.6947051,6.89737957 C25.3845691,6.94586703 25,7.09133015 25,7.45498831 C25,7.67318263 25.1612707,7.87925581 25.310136,8.03684079 L29.8257202,12.3280046 L28.7588514,18.3889711 C28.746446,18.4738249 28.7340407,18.5465561 28.7340407,18.6314099 C28.7340407,18.9465798 28.8953114,19.2375068 29.2550689,19.2375068 C29.4287457,19.2375068 29.5900164,19.1768967 29.7512871,19.0920429 L35.3213339,16.2312673 L40.8913807,19.0920429 C41.040246,19.1768967 41.2139221,19.2375068 41.3875989,19.2375068 C41.7473565,19.2375068 41.8962218,18.9465798 41.8962218,18.6314099 C41.8962218,18.5465561 41.8962218,18.4738249 41.8838164,18.3889711 L40.8169484,12.3280046 L45.3201264,8.03684079 C45.4813971,7.87925581 45.6426678,7.67318263 45.6426678,7.45498831 L45.6426678,7.45498831 Z" id="Shape-Copy" stroke="none" fill="#8FD295" fill-rule="evenodd"></path>
</svg>
