
<svg width="16px" height="15px" viewBox="71 0 16 15" version="1.1" xmlns="http://www.w3.org/2000/svg" xmlns:xlink="http://www.w3.org/1999/xlink">
    <!-- Generator: Sketch 40.3 (33839) - http://www.bohemiancoding.com/sketch -->
    <desc>Created with Sketch.</desc>
    <defs></defs>
    <path d="M79.2241529,0 C77.1872601,0 76.9318523,0.00863375 76.1318976,0.0451334375 C75.3336101,0.0815434375 74.7884082,0.208339687 74.3113529,0.393755313 C73.8181617,0.585393125 73.3999048,0.841842812 72.9829279,1.25879 C72.5659807,1.67576688 72.3095311,2.09402375 72.1178932,2.587215 C71.9324776,3.06427031 71.8056814,3.60947219 71.7692714,4.40775969 C71.7327717,5.20771437 71.7241379,5.46312219 71.7241379,7.500015 C71.7241379,9.53687781 71.7327717,9.79228563 71.7692714,10.5922403 C71.8056814,11.3905278 71.9324776,11.9357297 72.1178932,12.412785 C72.3095311,12.9059763 72.5659807,13.3242331 72.9829279,13.74121 C73.3999048,14.1581572 73.8181617,14.4146069 74.3113529,14.6062747 C74.7884082,14.7916603 75.3336101,14.9184566 76.1318976,14.9548666 C76.9318523,14.9913663 77.1872601,15 79.2241529,15 C81.2610157,15 81.5164236,14.9913663 82.3163782,14.9548666 C83.1146657,14.9184566 83.6598676,14.7916603 84.1369229,14.6062747 C84.6301142,14.4146069 85.0483711,14.1581572 85.4653479,13.74121 C85.8822951,13.3242331 86.1387448,12.9059763 86.3304126,12.412785 C86.5157982,11.9357297 86.6425945,11.3905278 86.6790045,10.5922403 C86.7155042,9.79228563 86.7241379,9.53687781 86.7241379,7.500015 C86.7241379,5.46312219 86.7155042,5.20771437 86.6790045,4.40775969 C86.6425945,3.60947219 86.5157982,3.06427031 86.3304126,2.587215 C86.1387448,2.09402375 85.8822951,1.67576688 85.4653479,1.25879 C85.0483711,0.841842812 84.6301142,0.585393125 84.1369229,0.393755313 C83.6598676,0.208339687 83.1146657,0.0815434375 82.3163782,0.0451334375 C81.5164236,0.00863375 81.2610157,0 79.2241529,0 L79.2241529,0 Z M79.2241529,1.35134906 C81.2267192,1.35134906 81.4639367,1.35900031 82.2547817,1.39508313 C82.9860242,1.42842688 83.3831436,1.55060813 83.6474232,1.65331906 C83.9975039,1.78937406 84.2473448,1.95189563 84.5097786,2.21435938 C84.7722423,2.47679313 84.9347639,2.72663406 85.0708189,3.07671469 C85.1735298,3.34099438 85.2957111,3.73811375 85.3290548,4.46935625 C85.3651376,5.26020125 85.3727889,5.49741875 85.3727889,7.500015 C85.3727889,9.50258125 85.3651376,9.73979875 85.3290548,10.5306438 C85.2957111,11.2618863 85.1735298,11.6590056 85.0708189,11.9232853 C84.9347639,12.2733659 84.7722423,12.5232069 84.5097786,12.7856406 C84.2473448,13.0481044 83.9975039,13.2106259 83.6474232,13.3466809 C83.3831436,13.4493919 82.9860242,13.5715731 82.2547817,13.6049169 C81.4640557,13.6409997 81.2268679,13.6486509 79.2241529,13.6486509 C77.2214079,13.6486509 76.9842498,13.6409997 76.1934942,13.6049169 C75.4622517,13.5715731 75.0651323,13.4493919 74.8008526,13.3466809 C74.450772,13.2106259 74.2009311,13.0481044 73.9384973,12.7856406 C73.6760632,12.5232069 73.513512,12.2733659 73.377457,11.9232853 C73.2747461,11.6590056 73.1525648,11.2618863 73.1192211,10.5306438 C73.0831382,9.73979875 73.075487,9.50258125 73.075487,7.500015 C73.075487,5.49741875 73.0831382,5.26020125 73.1192211,4.46935625 C73.1525648,3.73811375 73.2747461,3.34099438 73.377457,3.07671469 C73.513512,2.72663406 73.6760336,2.47679313 73.9384973,2.21435938 C74.2009311,1.95189563 74.450772,1.78937406 74.8008526,1.65331906 C75.0651323,1.55060813 75.4622517,1.42842688 76.1934942,1.39508313 C76.9843392,1.35900031 77.2215567,1.35134906 79.2241529,1.35134906 L79.2241529,1.35134906 Z M79.2241529,3.64865094 C77.0970829,3.64865094 75.3727889,5.372945 75.3727889,7.500015 C75.3727889,9.627055 77.0970829,11.3513491 79.2241529,11.3513491 C81.3511929,11.3513491 83.075487,9.627055 83.075487,7.500015 C83.075487,5.372945 81.3511929,3.64865094 79.2241529,3.64865094 L79.2241529,3.64865094 Z M79.2241529,10 C77.8434195,10 76.7241379,8.88071844 76.7241379,7.500015 C76.7241379,6.11928156 77.8434195,5 79.2241529,5 C80.6048564,5 81.7241379,6.11928156 81.7241379,7.500015 C81.7241379,8.88071844 80.6048564,10 79.2241529,10 L79.2241529,10 Z M84.1276642,3.49649 C84.1276642,3.99355156 83.7247095,4.39647625 83.2276479,4.39647625 C82.7306161,4.39647625 82.3276617,3.99355156 82.3276617,3.49649 C82.3276617,2.99942844 82.7306161,2.59647375 83.2276479,2.59647375 C83.7247095,2.59647375 84.1276642,2.99942844 84.1276642,3.49649 L84.1276642,3.49649 Z" id="Instagram" stroke="none" fill="#9B9B9B" fill-rule="evenodd"></path>
</svg>
