
<svg width="231px" height="44px" viewBox="10 21 231 44" version="1.1" xmlns="http://www.w3.org/2000/svg" xmlns:xlink="http://www.w3.org/1999/xlink">
    <!-- Generator: Sketch 40.3 (33839) - http://www.bohemiancoding.com/sketch -->
    <desc>Created with Sketch.</desc>
    <defs></defs>
    <g id="Logo" stroke="none" stroke-width="1" fill="none" fill-rule="evenodd" transform="translate(12.000000, 23.000000)">
        <path d="M51.3733333,18.6177778 C52.6800065,20.0133403 53.3333333,21.7688783 53.3333333,23.8844444 C53.3333333,26.0000106 52.6800065,27.7688818 51.3733333,29.1911111 C50.0666601,30.6133404 48.5377865,31.3244444 46.7866667,31.3244444 C45.0355468,31.3244444 43.626672,30.6222292 42.56,29.2177778 L42.56,36.2844444 L38.56,36.2844444 L38.56,16.7644444 L42.56,16.7644444 L42.56,18.3644444 C43.7866728,17.1377716 45.2355472,16.5244444 46.9066667,16.5244444 C48.5777861,16.5244444 50.0666601,17.2222152 51.3733333,18.6177778 L51.3733333,18.6177778 Z M43.48,26.8044444 C44.1288921,27.5422259 44.9155509,27.9111111 45.84,27.9111111 C46.7644491,27.9111111 47.5733299,27.5422259 48.2666667,26.8044444 C48.9600035,26.066663 49.3066667,25.1200058 49.3066667,23.9644444 C49.3066667,22.8088831 48.9688923,21.8400039 48.2933333,21.0577778 C47.6177744,20.2755516 46.8088936,19.8844444 45.8666667,19.8844444 C44.9244397,19.8844444 44.1288921,20.2711072 43.48,21.0444444 C42.8311079,21.8177816 42.5066667,22.7866608 42.5066667,23.9511111 C42.5066667,25.1155614 42.8311079,26.066663 43.48,26.8044444 L43.48,26.8044444 Z M67.3638096,31.1111111 L63.6038096,31.1111111 L63.6038096,29.3777778 C62.5726933,30.675562 61.2971505,31.3244444 59.7771429,31.3244444 C58.2571353,31.3244444 56.9815925,30.8844488 55.9504763,30.0044444 C54.91936,29.12444 54.4038096,27.9511184 54.4038096,26.4844444 C54.4038096,25.0177704 54.9371376,23.9200036 56.0038096,23.1911111 C57.0704816,22.4622186 58.5282448,22.0977778 60.3771429,22.0977778 L63.3638096,22.0977778 L63.3638096,22.0177778 C63.3638096,20.4888812 62.5549288,19.7244444 60.9371429,19.7244444 C60.2438061,19.7244444 59.5104801,19.8622208 58.7371429,20.1377778 C57.9638057,20.4133347 57.3104789,20.7555535 56.7771429,21.1644444 L54.9904763,18.5777778 C56.8749301,17.208882 59.0260197,16.5244444 61.4438096,16.5244444 C63.1860405,16.5244444 64.6082485,16.9599956 65.7104763,17.8311111 C66.812704,18.7022266 67.3638096,20.0799906 67.3638096,21.9644444 L67.3638096,31.1111111 Z M63.3371429,25.6444444 L63.3371429,24.9511111 L60.8304763,24.9511111 C59.2304683,24.9511111 58.4304763,25.4488839 58.4304763,26.4444444 C58.4304763,26.9600026 58.6215855,27.3555542 59.0038096,27.6311111 C59.3860337,27.906668 59.9326949,28.0444444 60.6438096,28.0444444 C61.3549243,28.0444444 61.9815847,27.8266688 62.5238096,27.3911111 C63.0660345,26.9555534 63.3371429,26.373337 63.3371429,25.6444444 L63.3371429,25.6444444 Z M82.6876192,18.6177778 C83.9942924,20.0133403 84.6476192,21.7688783 84.6476192,23.8844444 C84.6476192,26.0000106 83.9942924,27.7688818 82.6876192,29.1911111 C81.380946,30.6133404 79.8520724,31.3244444 78.1009525,31.3244444 C76.3498327,31.3244444 74.9409579,30.6222292 73.8742859,29.2177778 L73.8742859,36.2844444 L69.8742859,36.2844444 L69.8742859,16.7644444 L73.8742859,16.7644444 L73.8742859,18.3644444 C75.1009587,17.1377716 76.5498331,16.5244444 78.2209525,16.5244444 C79.892072,16.5244444 81.380946,17.2222152 82.6876192,18.6177778 L82.6876192,18.6177778 Z M74.7942859,26.8044444 C75.443178,27.5422259 76.2298368,27.9111111 77.1542859,27.9111111 C78.0787349,27.9111111 78.8876157,27.5422259 79.5809525,26.8044444 C80.2742893,26.066663 80.6209525,25.1200058 80.6209525,23.9644444 C80.6209525,22.8088831 80.2831781,21.8400039 79.6076192,21.0577778 C78.9320603,20.2755516 78.1231795,19.8844444 77.1809525,19.8844444 C76.2387256,19.8844444 75.443178,20.2711072 74.7942859,21.0444444 C74.1453937,21.8177816 73.8209525,22.7866608 73.8209525,23.9511111 C73.8209525,25.1155614 74.1453937,26.066663 74.7942859,26.8044444 L74.7942859,26.8044444 Z M98.9180954,29.0311111 C97.3003096,30.5600076 95.4025508,31.3244444 93.2247621,31.3244444 C91.0469734,31.3244444 89.2469914,30.65334 87.8247621,29.3111111 C86.4025328,27.9688822 85.6914288,26.1689002 85.6914288,23.9111111 C85.6914288,21.653322 86.415866,19.8577844 87.8647621,18.5244444 C89.3136582,17.1911044 91.0247522,16.5244444 92.9980954,16.5244444 C94.9714386,16.5244444 96.6469774,17.119994 98.0247621,18.3111111 C99.4025468,19.5022282 100.091429,21.1377674 100.091429,23.2177778 L100.091429,25.3511111 L89.6380954,25.3511111 C89.7625405,26.1333372 90.1714253,26.7733308 90.8647621,27.2711111 C91.5580989,27.7688914 92.3403133,28.0177778 93.2114288,28.0177778 C94.6158802,28.0177778 95.7714242,27.5466714 96.6780954,26.6044444 L98.9180954,29.0311111 Z M95.0780954,20.5244444 C94.5269816,20.0622199 93.8558772,19.8311111 93.0647621,19.8311111 C92.273647,19.8311111 91.5492098,20.0711087 90.8914288,20.5511111 C90.2336477,21.0311135 89.8514293,21.6799959 89.7447621,22.4977778 L96.0380954,22.4977778 C95.9492061,21.6444402 95.6292093,20.986669 95.0780954,20.5244444 L95.0780954,20.5244444 Z M109.375238,20.2844444 C108.184121,20.2844444 107.295241,20.7066624 106.708572,21.5511111 C106.121902,22.3955598 105.828572,23.5111042 105.828572,24.8977778 L105.828572,31.1111111 L101.828572,31.1111111 L101.828572,16.7644444 L105.828572,16.7644444 L105.828572,18.6577778 C106.34413,18.0711082 106.988568,17.5733354 107.761905,17.1644444 C108.535242,16.7555535 109.321901,16.5422223 110.121905,16.5244444 L110.148572,20.2844444 L109.375238,20.2844444 Z M127.570097,17.9014757 C128.650832,18.4960967 129.495007,19.3315918 130.102649,20.4079861 C130.710291,21.4843804 131.014108,22.7039862 131.014108,24.0668403 C131.014108,25.4557361 130.710291,26.6883627 130.102649,27.7647569 C129.495007,28.8411512 128.650832,29.6809866 127.570097,30.2842882 C126.489363,30.8875898 125.263246,31.1892361 123.891712,31.1892361 C122.520177,31.1892361 121.291891,30.8875898 120.206816,30.2842882 C119.121741,29.6809866 118.277565,28.8411512 117.674264,27.7647569 C117.070962,26.6883627 116.769316,25.4557361 116.769316,24.0668403 C116.769316,22.6953056 117.070962,21.4735297 117.674264,20.4014757 C118.277565,19.3294217 119.121741,18.4960967 120.206816,17.9014757 C121.291891,17.3068547 122.520177,17.0095486 123.891712,17.0095486 C125.263246,17.0095486 126.489363,17.3068547 127.570097,17.9014757 L127.570097,17.9014757 Z M121.287545,19.5616319 C120.514972,20.0043425 119.916019,20.6184857 119.49067,21.4040799 C119.065321,22.1896741 118.852649,23.0859325 118.852649,24.0928819 C118.852649,25.108512 119.065321,26.0112808 119.49067,26.8012153 C119.916019,27.5911498 120.514972,28.2096332 121.287545,28.656684 C122.060118,29.1037349 122.928165,29.3272569 123.891712,29.3272569 C124.855258,29.3272569 125.723305,29.1037349 126.495878,28.656684 C127.268452,28.2096332 127.867404,27.5911498 128.292753,26.8012153 C128.718103,26.0112808 128.930774,25.108512 128.930774,24.0928819 C128.930774,23.0772519 128.718103,22.1788234 128.292753,21.3975694 C127.867404,20.6163155 127.266282,20.0043425 126.489368,19.5616319 C125.712454,19.1189214 124.846578,18.8975694 123.891712,18.8975694 C122.928165,18.8975694 122.060118,19.1189214 121.287545,19.5616319 L121.287545,19.5616319 Z M137.566563,17.8233507 C138.417262,17.2808133 139.437217,17.0008681 140.626459,16.9835069 L140.626459,19.0798611 C139.168118,19.0624999 137.996255,19.4683118 137.110834,20.297309 C136.225413,21.1263062 135.717605,22.2439166 135.587396,23.6501736 L135.587396,31.1111111 L133.517084,31.1111111 L133.517084,17.0616319 L135.587396,17.0616319 L135.587396,20.1736111 C136.056149,19.1493004 136.715864,18.3658881 137.566563,17.8233507 L137.566563,17.8233507 Z M160.347828,18.6177778 C161.654501,20.0133403 162.307828,21.7688783 162.307828,23.8844444 C162.307828,26.0000106 161.654501,27.7688818 160.347828,29.1911111 C159.041155,30.6133404 157.512281,31.3244444 155.761161,31.3244444 C154.010041,31.3244444 152.601167,30.6222292 151.534495,29.2177778 L151.534495,36.2844444 L147.534495,36.2844444 L147.534495,16.7644444 L151.534495,16.7644444 L151.534495,18.3644444 C152.761167,17.1377716 154.210042,16.5244444 155.881161,16.5244444 C157.552281,16.5244444 159.041155,17.2222152 160.347828,18.6177778 L160.347828,18.6177778 Z M152.454495,26.8044444 C153.103387,27.5422259 153.890046,27.9111111 154.814495,27.9111111 C155.738944,27.9111111 156.547825,27.5422259 157.241161,26.8044444 C157.934498,26.066663 158.281161,25.1200058 158.281161,23.9644444 C158.281161,22.8088831 157.943387,21.8400039 157.267828,21.0577778 C156.592269,20.2755516 155.783388,19.8844444 154.841161,19.8844444 C153.898934,19.8844444 153.103387,20.2711072 152.454495,21.0444444 C151.805603,21.8177816 151.481161,22.7866608 151.481161,23.9511111 C151.481161,25.1155614 151.805603,26.066663 152.454495,26.8044444 L152.454495,26.8044444 Z M168.151638,31.1111111 L164.151638,31.1111111 L164.151638,11.3244444 L168.151638,11.3244444 L168.151638,31.1111111 Z M182.982114,31.1111111 L179.222114,31.1111111 L179.222114,29.3777778 C178.190998,30.675562 176.915455,31.3244444 175.395447,31.3244444 C173.87544,31.3244444 172.599897,30.8844488 171.568781,30.0044444 C170.537664,29.12444 170.022114,27.9511184 170.022114,26.4844444 C170.022114,25.0177704 170.555442,23.9200036 171.622114,23.1911111 C172.688786,22.4622186 174.146549,22.0977778 175.995447,22.0977778 L178.982114,22.0977778 L178.982114,22.0177778 C178.982114,20.4888812 178.173233,19.7244444 176.555447,19.7244444 C175.86211,19.7244444 175.128784,19.8622208 174.355447,20.1377778 C173.58211,20.4133347 172.928783,20.7555535 172.395447,21.1644444 L170.608781,18.5777778 C172.493234,17.208882 174.644324,16.5244444 177.062114,16.5244444 C178.804345,16.5244444 180.226553,16.9599956 181.328781,17.8311111 C182.431008,18.7022266 182.982114,20.0799906 182.982114,21.9644444 L182.982114,31.1111111 Z M178.955447,25.6444444 L178.955447,24.9511111 L176.448781,24.9511111 C174.848773,24.9511111 174.048781,25.4488839 174.048781,26.4444444 C174.048781,26.9600026 174.23989,27.3555542 174.622114,27.6311111 C175.004338,27.906668 175.550999,28.0444444 176.262114,28.0444444 C176.973229,28.0444444 177.599889,27.8266688 178.142114,27.3911111 C178.684339,26.9555534 178.955447,26.373337 178.955447,25.6444444 L178.955447,25.6444444 Z M194.73259,30.0444444 C193.692585,30.897782 192.372598,31.3244444 190.77259,31.3244444 C189.705918,31.3244444 188.594818,31.1333352 187.439257,30.7511111 C186.283695,30.368887 185.243706,29.8044482 184.319257,29.0577778 L186.079257,26.5511111 C187.572598,27.7066724 189.163693,28.2844444 190.85259,28.2844444 C191.368148,28.2844444 191.777033,28.1822232 192.079257,27.9777778 C192.381481,27.7733323 192.53259,27.5022239 192.53259,27.1644444 C192.53259,26.826665 192.323703,26.515557 191.905923,26.2311111 C191.488144,25.9466652 190.883705,25.6800012 190.09259,25.4311111 C189.301475,25.182221 188.697037,24.9688898 188.279257,24.7911111 C187.861477,24.6133324 187.385926,24.3555572 186.85259,24.0177778 C185.76814,23.3422188 185.225923,22.3422288 185.225923,21.0177778 C185.225923,19.6933267 185.759251,18.6133375 186.825923,17.7777778 C187.892595,16.942218 189.270359,16.5244444 190.959257,16.5244444 C192.648154,16.5244444 194.337026,17.0933276 196.025923,18.2311111 L194.53259,20.8977778 C193.288139,20.0444402 192.048152,19.6177778 190.81259,19.6177778 C189.577028,19.6177778 188.959257,19.9555522 188.959257,20.6311111 C188.959257,21.0044463 189.15481,21.2977767 189.545923,21.5111111 C189.937037,21.7244455 190.585919,21.9733319 191.49259,22.2577778 C192.399261,22.5422236 193.043699,22.7599992 193.425923,22.9111111 C193.808148,23.062223 194.265921,23.2977762 194.799257,23.6177778 C195.794817,24.2222252 196.29259,25.231104 196.29259,26.6444444 C196.29259,28.0577848 195.772595,29.1911068 194.73259,30.0444444 L194.73259,30.0444444 Z M202.883066,19.6444444 L202.883066,26.0711111 C202.883066,26.622225 203.025287,27.0533318 203.309733,27.3644444 C203.594179,27.6755571 203.931953,27.8311111 204.323066,27.8311111 C205.069737,27.8311111 205.700842,27.4933367 206.2164,26.8177778 L207.709733,29.6177778 C206.465282,30.7555612 205.154184,31.3244444 203.7764,31.3244444 C202.398615,31.3244444 201.234182,30.8711156 200.283066,29.9644444 C199.33195,29.0577732 198.8564,27.82223 198.8564,26.2577778 L198.8564,19.6444444 L197.1764,19.6444444 L197.1764,16.7644444 L198.8564,16.7644444 L198.8564,12.4711111 L202.883066,12.4711111 L202.883066,16.7644444 L206.349733,16.7644444 L206.349733,19.6444444 L202.883066,19.6444444 Z M212.700209,31.1111111 L208.700209,31.1111111 L208.700209,16.7644444 L212.700209,16.7644444 L212.700209,31.1111111 Z M208.353543,13.2711111 C208.353543,12.61333 208.580207,12.05778 209.033543,11.6044444 C209.486878,11.1511088 210.042428,10.9244444 210.700209,10.9244444 C211.35799,10.9244444 211.91354,11.1511088 212.366876,11.6044444 C212.820212,12.05778 213.046876,12.61333 213.046876,13.2711111 C213.046876,13.9288922 212.820212,14.4844422 212.366876,14.9377778 C211.91354,15.3911134 211.35799,15.6177778 210.700209,15.6177778 C210.042428,15.6177778 209.486878,15.3911134 209.033543,14.9377778 C208.580207,14.4844422 208.353543,13.9288922 208.353543,13.2711111 L208.353543,13.2711111 Z M222.224019,27.7777778 C223.557359,27.7777778 224.757347,27.1111178 225.824019,25.7777778 L228.197352,28.4444444 C226.348454,30.364454 224.348474,31.3244444 222.197352,31.3244444 C220.04623,31.3244444 218.228471,30.6444512 216.744019,29.2844444 C215.259567,27.9244376 214.517352,26.1466776 214.517352,23.9511111 C214.517352,21.7555446 215.268456,19.9688958 216.770686,18.5911111 C218.272915,17.2133264 220.05512,16.5244444 222.117352,16.5244444 C223.148468,16.5244444 224.192902,16.7377756 225.250686,17.1644444 C226.308469,17.5911132 227.237348,18.222218 228.037352,19.0577778 L225.957352,21.7777778 C225.495128,21.2266639 224.930689,20.8000015 224.264019,20.4977778 C223.597349,20.195554 222.935133,20.0444444 222.277352,20.0444444 C221.228458,20.0444444 220.326245,20.3866632 219.570686,21.0711111 C218.815126,21.755559 218.437352,22.7066606 218.437352,23.9244444 C218.437352,25.1422283 218.815126,26.0888855 219.570686,26.7644444 C220.326245,27.4400034 221.21068,27.7777778 222.224019,27.7777778 L222.224019,27.7777778 Z" id="paper-or-plastic" fill="#FFFFFF"></path>
        <g id="j91">
            <g id="Page-1">
                <g>
                    <g id="j91">
                        <path d="M3.7500731,13.2722807 C3.16357212,12.3277193 2.13401559,11.4259649 0.951827485,11.4624561" id="Stroke-130" stroke="#FFFFFF" stroke-width="0.75"></path>
                        <g id="Stroke-132"></g>
                        <path d="M11.5505361,16.077193 C13.370809,16.4210526 14.5021199,16.2645614 16.0121832,15.1985965 C16.8693226,14.5929825 17.6190546,14.1992982 18.4401559,14.0350877" id="Stroke-134" stroke="#FFFFFF" stroke-width="0.75"></path>
                        <path d="M16.4389864,7.61263158 L12.535575,8.45964912 C11.9992446,8.57614035 11.4643275,8.23578947 11.3470273,7.70245614 C11.2297271,7.16982456 11.5724415,6.63859649 12.1094786,6.52210526 L16.0121832,5.67438596 C16.5492203,5.55789474 17.0841374,5.89894737 17.2014376,6.4322807 C17.3187378,6.96491228 16.9753168,7.49614035 16.4389864,7.61263158 L16.4389864,7.61263158 L16.4389864,7.61263158 Z" id="Stroke-136" stroke="#FFFFFF" stroke-width="0.75"></path>
                        <path d="M25.9205166,13.9684211 C25.574269,14.9817544 24.4683967,15.5235088 23.4473197,15.1796491 C22.4269493,14.8350877 21.321077,15.3768421 20.9741228,16.3901754" id="Stroke-138" stroke="#FFFFFF" stroke-width="0.75"></path>
                        <path d="M27.5923977,9.07859649 C27.2454435,10.0919298 26.1395712,10.6336842 25.1192008,10.2898246 C24.0988304,9.94526316 22.9922515,10.4870175 22.6460039,11.5010526" id="Stroke-140" stroke="#FFFFFF" stroke-width="0.75"></path>
                        <path d="M28.4396442,4.59298246 C28.1506335,5.43719298 27.229191,5.88842105 26.3784113,5.60210526 C25.5276316,5.31508772 24.6061891,5.76631579 24.3171784,6.61122807" id="Stroke-142" stroke="#FFFFFF" stroke-width="0.75"></path>
                        <path d="M28.9053119,17.7768421 L27.6722466,35.3403509 C27.5817982,37.0940351 26.1240253,38.4694737 24.3560429,38.4694737 L4.52029727,38.4694737 C2.75231481,38.4694737 1.29454191,37.0940351 1.20409357,35.3403509 L0.00070662768,18.3529825 C-0.019785575,17.9536842 0.416203704,17.6933333 0.761744639,17.8989474 L1.71215887,18.4652632 C2.80389864,19.1157895 4.16769006,19.1157895 5.25942982,18.4652632 L5.503923,18.3192982 C6.43596491,17.7642105 7.60119396,17.7642105 8.53323587,18.3192982 L9.0370614,18.6196491 C9.96910331,19.1754386 11.1343324,19.1754386 12.0663743,18.6196491 L12.5701998,18.3192982 C13.5022417,17.7642105 14.6674708,17.7642105 15.5995127,18.3192982 L16.1033382,18.6196491 C17.0353801,19.1754386 18.2006092,19.1754386 19.1326511,18.6196491 L19.6364766,18.3192982 C20.5685185,17.7642105 21.7337476,17.7642105 22.6657895,18.3192982 L23.169615,18.6196491 C24.1016569,19.1754386 25.266886,19.1754386 26.1989279,18.6196491 L28.5929825,17.5635088 C28.7449074,17.4961404 28.9137914,17.6119298 28.9053119,17.7768421 L28.9053119,17.7768421 L28.9053119,17.7768421 Z" id="Stroke-144" stroke="#FFFFFF" stroke-width="0.75"></path>
                        <path d="M3.5331384,27.7777778 L8.47953216,27.7777778" id="Stroke-146" stroke="#FFFFFF" stroke-width="0.75"></path>
                        <path d="M3.5331384,31.1111111 L9.89278752,31.1111111" id="Stroke-148" stroke="#FFFFFF" stroke-width="0.75"></path>
                        <path d="M3.5331384,33.3333333 L11.3060429,33.3333333" id="Stroke-150" stroke="#FFFFFF" stroke-width="0.75"></path>
                        <path d="M14.1325536,33.3333333 L15.545809,33.3333333" id="Stroke-152" stroke="#FFFFFF" stroke-width="0.75"></path>
                        <path d="M19.1807018,18.6196491 L19.6838207,18.3192982 C20.6165692,17.7642105 21.7810916,17.7642105 22.7138402,18.3192982 L23.2169591,18.6196491 C24.1497076,19.1754386 25.31423,19.1754386 26.2469786,18.6196491 L27.6708333,17.9908772 C27.8799951,17.4112281 28.0255604,16.9922807 28.0835039,16.8063158 C29.4119639,12.562807 30.2676901,8.09403509 30.3842836,3.63789474 C30.4309211,1.84561404 28.9378168,-0.949473684 26.4582602,0.320701754 C24.021808,1.56842105 22.275731,6.35368421 21.0490253,8.62596491 C19.3064815,11.8547368 17.9285575,15.365614 16.9470517,18.9445614 C17.6946637,19.1312281 18.4995127,19.0252632 19.1807018,18.6196491 L19.1807018,18.6196491 L19.1807018,18.6196491 Z" id="Stroke-154" stroke="#FFFFFF" stroke-width="0.75"></path>
                        <path d="M12.3384259,9.89122807 C11.6706628,10.7733333 10.6163743,11.8175439 11.0226852,13.6617544 L12.1137183,18.6196491 L12.114425,18.6196491 L12.6175439,18.3192982 C13.5502924,17.7642105 14.7148148,17.7642105 15.6475634,18.3192982 L16.1506823,18.6196491 C16.5612329,18.8638596 17.0163012,18.994386 17.4770224,19.0238596 C17.2989522,19.0119298 17.1208821,18.9880702 16.9470517,18.9445614 C17.6833577,16.2617544 18.6415448,13.6161404 19.8096004,11.0996491 C19.2626706,9.74105263 18.0953216,9.28631579 17.2473684,8.82035088 C17.242422,8.81754386 17.2374756,8.8154386 17.2332359,8.81263158 C16.6961988,8.50736842 16.6629873,7.77824561 17.0671784,7.31368421 C17.225463,7.13052632 17.2996589,6.87859649 17.2438353,6.62596491 L17.15904,6.23789474 C17.0650585,5.81192982 16.6368421,5.53894737 16.2072125,5.6322807 L11.9144493,6.56421053 C11.4848197,6.65754386 11.2106481,7.08210526 11.303923,7.50877193 L11.389425,7.89614035 C11.4459552,8.15438596 11.6254386,8.35438596 11.8529727,8.45192982 C12.3758772,8.67578947 12.6938596,9.25473684 12.4267544,9.75368421 C12.4013158,9.80070175 12.3716374,9.84701754 12.3384259,9.89122807 L12.3384259,9.89122807 L12.3384259,9.89122807 Z" id="Stroke-156" stroke="#FFFFFF" stroke-width="0.75"></path>
                        <path d="M0.809088694,17.8989474 L1.75950292,18.4652632 C2.85124269,19.1157895 4.21503411,19.1157895 5.30677388,18.4652632 L5.55126706,18.3192982 C6.48401559,17.7642105 7.64853801,17.7642105 8.58128655,18.3192982 L9.08440546,18.6196491 C9.63204191,18.9459649 10.2595273,19.0750877 10.8735867,19.0182456 C11.3258285,17.5677193 11.1731969,15.7536842 10.4729288,14.5270175 C8.11561891,10.397193 6.1547271,11.2392982 4.26803119,13.0322807 C3.90623782,13.3761404 3.46388889,13.6280702 2.98196881,13.7649123 C0.912962963,14.3522807 -0.614059454,15.3129825 0.253679337,17.9284211 C0.407724172,17.8168421 0.621125731,17.7866667 0.809088694,17.8989474 L0.809088694,17.8989474 L0.809088694,17.8989474 Z" id="Stroke-158" stroke="#FFFFFF" stroke-width="0.75"></path>
                        <path d="M18.2126218,4.62947368 C18.1179337,3.26245614 16.9739035,2.18175439 15.5733674,2.18175439 C15.5691277,2.18175439 15.5648879,2.18245614 15.5613548,2.18245614 C15.5860867,1.9754386 15.5719542,1.75649123 15.5048246,1.5277193 C15.3147417,0.886315789 14.7473197,0.393684211 14.0781433,0.315087719 C13.5298002,0.250526316 13.0266813,0.445614035 12.6740741,0.791578947 C12.3384259,0.49122807 11.8981969,0.30245614 11.4106238,0.30245614 C10.3662281,0.30245614 9.51898148,1.14385965 9.51898148,2.18175439 C9.51898148,2.1845614 9.51968811,2.18807018 9.51968811,2.19087719 C8.24987817,2.28701754 7.24858674,3.33824561 7.24858674,4.62385965 C7.24858674,4.82035088 7.27402534,5.01052632 7.31854288,5.19368421 C5.80706628,5.25614035 4.6001462,6.48982456 4.6001462,8.00631579 C4.6001462,8.52 4.74005848,9 4.98243177,9.41473684 C4.51747076,9.79438596 4.22139376,10.3691228 4.22139376,11.0126316 C4.22139376,11.6007018 4.47224659,12.1277193 4.86937135,12.5031579 C6.57446394,11.12 8.36505848,10.8336842 10.4729288,14.5270175 C11.1731969,15.7536842 11.0226852,13.6617544 11.0226852,13.6617544 C10.6163743,11.8175439 11.6706628,10.7733333 12.3384259,9.89122807 C12.3716374,9.84701754 12.4013158,9.80070175 12.4267544,9.75368421 C12.6938596,9.25473684 12.3758772,8.67578947 11.8529727,8.45192982 C11.6254386,8.35438596 11.4459552,8.15438596 11.389425,7.89614035 L11.303923,7.50877193 C11.2106481,7.08210526 11.4848197,6.65754386 11.9144493,6.56421053 L16.2072125,5.6322807 C16.6368421,5.53894737 17.0650585,5.81192982 17.15904,6.23789474 L17.2438353,6.62596491 C17.2996589,6.87859649 17.225463,7.13052632 17.0671784,7.31368421 C16.6629873,7.77824561 16.6961988,8.50736842 17.2332359,8.81263158 C17.2374756,8.8154386 17.242422,8.81754386 17.2473684,8.82035088 C17.8995858,9.17894737 18.7390595,9.53473684 19.3418129,10.2975439 C20.028655,9.68421053 20.4717105,8.82807018 20.4914961,7.88982456 C20.5225877,6.38315789 19.5608674,5.09894737 18.2126218,4.62947368 L18.2126218,4.62947368 L18.2126218,4.62947368 Z" id="Stroke-160" stroke="#FFFFFF" stroke-width="0.75"></path>
                    </g>
                </g>
            </g>
        </g>
    </g>
</svg>
