
<svg width="18px" height="14px" viewBox="197 10 18 14" version="1.1" xmlns="http://www.w3.org/2000/svg" xmlns:xlink="http://www.w3.org/1999/xlink">
    <!-- Generator: Sketch 40.3 (33839) - http://www.bohemiancoding.com/sketch -->
    <desc>Created with Sketch.</desc>
    <defs></defs>
    <path d="M215,22.0683333 C215,22.7183333 214.460208,23.26 213.858131,23.26 L198.141869,23.26 C197.539792,23.26 197,22.7183333 197,22.0683333 L197,11.495 C197,10.8666667 197.49827,10.3466667 198.100346,10.325 L198.121107,10.26 L213.83737,10.26 L213.858131,10.325 L214.128028,10.325 L213.858131,10.325 C214.480969,10.325 215,10.845 215,11.495 L215,22.0683333 Z M213.608997,20.3783333 L213.608997,13.1416667 L209.062284,16.76 L213.608997,20.3783333 Z M213.608997,11.7116667 L198.391003,11.7116667 C200.923875,13.705 203.456747,15.6983333 205.989619,17.7133333 C208.522491,15.6983333 211.055363,13.705 213.608997,11.7116667 L213.608997,11.7116667 Z M213.608997,21.8083333 L208.128028,17.4966667 L206.67474,18.6666667 L205.283737,18.6666667 L203.851211,17.5183333 L198.391003,21.8083333 L213.608997,21.8083333 Z M202.916955,16.76 L198.391003,13.1416667 L198.391003,20.3783333 L202.916955,16.76 Z" id="Icon" stroke="none" fill="#FFFFFF" fill-rule="evenodd"></path>
</svg>
