
<svg width="38px" height="48px" viewBox="-2 -2 38 48" version="1.1" xmlns="http://www.w3.org/2000/svg" xmlns:xlink="http://www.w3.org/1999/xlink">
    <!-- Generator: Sketch 40.3 (33839) - http://www.bohemiancoding.com/sketch -->
    <desc>Created with Sketch.</desc>
    <defs></defs>
    <g id="g368" stroke="none" stroke-width="1" fill="none" fill-rule="evenodd">
        <g id="Page-1" stroke="#000000">
            <g>
                <g id="g368">
                    <polygon id="Path" points="14.1165558 35.6551724 32.4299254 35.6551724 32.4299254 44 14.1165558 44"></polygon>
                    <path d="M26.3254688,44 L14.1165558,44 L14.1165558,35.6551724 L21.3083686,35.6551724 C24.0790288,35.6551724 26.3254688,37.8877931 26.3254688,40.6431034 L26.3254688,44 L26.3254688,44 L26.3254688,44 Z" id="Path"></path>
                    <path d="M23.2732406,39.8275862 C23.2732406,40.8752414 22.4193797,41.7241379 21.3655979,41.7241379 C20.3118161,41.7241379 19.4579552,40.8752414 19.4579552,39.8275862 C19.4579552,38.779931 20.3118161,37.9310345 21.3655979,37.9310345 C22.4193797,37.9310345 23.2732406,38.779931 23.2732406,39.8275862 L23.2732406,39.8275862 L23.2732406,39.8275862 Z" id="Path"></path>
                    <path d="M20.1477588,8.11875862 C21.0886082,7.70758621 21.7471264,6.776 21.7471264,5.68965517 C21.7471264,4.22324138 20.551416,3.03448276 19.0764267,3.03448276 C17.9829659,3.03448276 17.0459318,3.68917241 16.633118,4.6237931 L20.1477588,8.11875862 L20.1477588,8.11875862 L20.1477588,8.11875862 Z" id="Path"></path>
                    <path d="M23.9630442,11.9118621 C24.9038935,11.5014483 25.5624118,10.5691034 25.5624118,9.48275862 C25.5624118,8.01634483 24.3667014,6.82758621 22.891712,6.82758621 C21.7982513,6.82758621 20.8612172,7.48227586 20.4484033,8.41765517 L23.9630442,11.9118621 L23.9630442,11.9118621 L23.9630442,11.9118621 Z" id="Path"></path>
                    <path d="M27.7783295,15.7049655 C28.7191789,15.2937931 29.3776971,14.3629655 29.3776971,13.2758621 C29.3776971,11.8094483 28.1819867,10.6206897 26.7069974,10.6206897 C25.6135366,10.6206897 24.6765025,11.2753793 24.2636886,12.21 L27.7783295,15.7049655 L27.7783295,15.7049655 L27.7783295,15.7049655 Z" id="Path"></path>
                    <path d="M31.5936148,19.498069 C32.5344642,19.0868966 33.1929825,18.1553103 33.1929825,17.0689655 C33.1929825,15.6025517 31.997272,14.4137931 30.5222827,14.4137931 C29.4288219,14.4137931 28.4917879,15.0684828 28.078974,16.0031034 L31.5936148,19.498069 L31.5936148,19.498069 L31.5936148,19.498069 Z" id="Path"></path>
                    <path d="M16.0241984,25.0344828 L8.39362775,25.0344828 C6.92474289,25.0344828 5.72292801,23.8396552 5.72292801,22.3793103 C5.72292801,20.9189655 6.92474289,19.7241379 8.39362775,19.7241379 L16.0241984,19.7241379 C17.4930833,19.7241379 18.6948982,20.9189655 18.6948982,22.3793103 C18.6948982,23.8396552 17.4930833,25.0344828 16.0241984,25.0344828 L16.0241984,25.0344828 L16.0241984,25.0344828 Z" id="Path"></path>
                    <path d="M27.0885259,24.2758621 C27.0885259,25.5328966 26.0637403,26.5517241 24.7993547,26.5517241 C23.5349691,26.5517241 22.5101835,25.5328966 22.5101835,24.2758621 C22.5101835,23.0188276 23.5349691,22 24.7993547,22 C26.0637403,22 27.0885259,23.0188276 27.0885259,24.2758621 L27.0885259,24.2758621 L27.0885259,24.2758621 Z" id="Path"></path>
                    <polygon id="Path" points="8.01209921 6.06896552 6.48598508 7.5862069"></polygon>
                    <path d="M32.6802081,20.5783448 L12.4942964,0.509793103 C11.8105973,-0.169931034 10.7026384,-0.169931034 10.0189393,0.509793103 L0.624180682,9.84993103 C-0.0595184513,10.5296552 -0.0595184513,11.6311724 0.624180682,12.3108966 L8.10900746,19.7529655 C8.20362654,19.7423448 8.29595644,19.7241379 8.39362775,19.7241379 L16.0241984,19.7241379 C17.4930833,19.7241379 18.6948982,20.9189655 18.6948982,22.3793103 C18.6948982,23.8396552 17.4930833,25.0344828 16.0241984,25.0344828 L13.4214108,25.0344828 L20.8100924,32.3794483 C21.4937915,33.0591724 22.6017504,33.0591724 23.2854495,32.3794483 L32.6802081,23.040069 C33.3639072,22.3595862 33.3639072,21.258069 32.6802081,20.5783448 L32.6802081,20.5783448 L32.6802081,20.5783448 Z" id="Path"></path>
                    <path d="M31.7706441,23.9435862 L23.2854495,32.3794483 C22.6017504,33.0591724 21.4937915,33.0591724 20.8100924,32.3794483 L13.4214108,25.0344828 L8.39362775,25.0344828 C7.95258076,25.2491724 6.74923977,24.4746207 7.21088929,24.8683448 L15.4610623,33.0386897 C15.5175285,33.0948276 15.5831514,33.1350345 15.6426699,33.1858621 L15.6426699,35.6551724 L30.9038113,35.6551724 L30.9038113,32.2337931 C32.2918121,31.1952414 33.1929825,29.5490345 33.1929825,27.6896552 C33.1929825,26.2535862 32.6535011,24.9449655 31.7706441,23.9435862 L31.7706441,23.9435862 L31.7706441,23.9435862 Z" id="Path"></path>
                    <path d="M12.4942964,0.509793103 C11.8105973,-0.169931034 10.7026384,-0.169931034 10.0189393,0.509793103 L0.624180682,9.84993103 C-0.0595184513,10.5296552 -0.0595184513,11.6311724 0.624180682,12.3108966 L2.95532002,14.6284828 L14.8254358,2.82737931 L12.4942964,0.509793103 L12.4942964,0.509793103 L12.4942964,0.509793103 Z" id="Path"></path>
                </g>
            </g>
        </g>
    </g>
</svg>
