
<svg width="19px" height="19px" viewBox="739 16 19 19" version="1.1" xmlns="http://www.w3.org/2000/svg" xmlns:xlink="http://www.w3.org/1999/xlink">
    <!-- Generator: Sketch 40.3 (33839) - http://www.bohemiancoding.com/sketch -->
    <desc>Created with Sketch.</desc>
    <defs></defs>
    <path d="M751.939,23.771 C751.939,26.621 749.621,28.939 746.771,28.939 C743.921,28.939 741.584,26.621 741.584,23.771 C741.584,20.902 743.902,18.584 746.771,18.584 C749.621,18.584 751.939,20.921 751.939,23.771 L751.939,23.771 Z M753.174,28.16 C754.067,26.887 754.542,25.329 754.542,23.771 C754.542,19.477 751.065,16 746.771,16 C742.477,16 739,19.477 739,23.771 C739,28.065 742.477,31.542 746.771,31.542 C748.329,31.542 749.887,31.048 751.179,30.174 L756.005,35 L758,33.005 L753.174,28.16 Z" id="Search-Icon" stroke="none" fill="#4A4A4A" fill-rule="evenodd"></path>
</svg>
