
<svg width="46px" height="40px" viewBox="-1 -1 46 40" version="1.1" xmlns="http://www.w3.org/2000/svg" xmlns:xlink="http://www.w3.org/1999/xlink">
    <!-- Generator: Sketch 40.3 (33839) - http://www.bohemiancoding.com/sketch -->
    <desc>Created with Sketch.</desc>
    <defs></defs>
    <g id="truck-delivery-time" stroke="none" stroke-width="1" fill="none" fill-rule="evenodd">
        <g id="Group" stroke="#000000">
            <path d="M30.3269709,20.8653605 L38.8388757,20.8653605 L43.5677116,28.448127 L43.5677116,34.1162449 L38.8388757,34.1162449 M19.9235317,34.176907 L30.3269709,34.1655329 L30.3269709,15.1782857 L19.9235317,15.1782857 M9.52009259,19.9175147 L9.52009259,34.176907 L14.2489286,34.176907" id="Shape"></path>
            <ellipse id="Oval" cx="36.0015741" cy="35.1133787" rx="2.83730159" ry="2.84353741"></ellipse>
            <ellipse id="Oval" cx="17.0862302" cy="35.1133787" rx="2.83730159" ry="2.84353741"></ellipse>
            <path d="M17.0862302,8.55284354 C17.0862302,13.2029751 13.2142593,17.0834558 8.5743254,17.0834558 C3.93439153,17.0834558 0.0624206349,13.2029751 0.0624206349,8.55284354 C0.0624206349,3.90081633 3.93439153,0.0222312925 8.5743254,0.0222312925 C13.2142593,0.0222312925 17.0862302,3.90081633 17.0862302,8.55284354 L17.0862302,8.55284354 Z" id="Shape"></path>
            <path d="M7.6285582,3.80413605 L7.6285582,9.49121088 L11.411627,9.49121088 M0.0624206349,24.6567438 L5.73702381,24.6662222 M2.89972222,28.448127 L5.73702381,28.4576054 M4.79125661,32.2395102 L5.73702381,32.2489887" id="Shape"></path>
            <path d="M30.3269709,28.448127 L42.9756614,28.448127 M30.2078042,34.355102 L30.2664418,34.2925442 M30.3458862,34.1352018 L33.4801587,34.1352018" id="Shape"></path>
        </g>
    </g>
</svg>
