
<svg width="16px" height="13px" viewBox="31 1 16 13" version="1.1" xmlns="http://www.w3.org/2000/svg" xmlns:xlink="http://www.w3.org/1999/xlink">
    <!-- Generator: Sketch 40.3 (33839) - http://www.bohemiancoding.com/sketch -->
    <desc>Created with Sketch.</desc>
    <defs></defs>
    <path d="M46.7241379,2.47977594 C46.1729845,2.73076938 45.5795701,2.90050562 44.9571014,2.97634531 C45.5927767,2.58631281 46.0805386,1.96785844 46.3103326,1.23113031 C45.7151576,1.59227156 45.0574714,1.85500188 44.3548829,1.99584688 C43.7949251,1.38280969 42.9946079,1 42.1088889,1 C40.4105264,1 39.0326429,2.412965 39.0326429,4.15547125 C39.0326429,4.40285312 39.0590561,4.64301187 39.1118823,4.87414219 C36.5542136,4.74232562 34.2870892,3.48736 32.7683357,1.57602031 C32.5033245,2.04369812 32.3518892,2.58631281 32.3518892,3.16413875 C32.3518892,4.25839656 32.8951189,5.22444937 33.7209682,5.79053813 C33.2173586,5.77518969 32.7419226,5.63163594 32.3263567,5.39689406 L32.3263567,5.43571688 C32.3263567,6.96515 33.3872829,8.24088125 34.7959817,8.52979406 C34.5380136,8.60382812 34.2659586,8.640845 33.9850995,8.640845 C33.7870011,8.640845 33.5933051,8.62188531 33.405772,8.58486813 C33.7975664,9.83802812 34.9333298,10.7508125 36.2803979,10.7751897 C35.2273954,11.6220656 33.899697,12.1267606 32.458422,12.1267606 C32.2101389,12.1267606 31.964497,12.112315 31.7241379,12.0834238 C33.0861736,12.9772481 34.7044161,13.5 36.4415176,13.5 C42.1027257,13.5 45.1974607,8.69230781 45.1974607,4.52202969 C45.1974607,4.38479594 45.1948195,4.24756219 45.1895367,4.11303719 C45.7908751,3.66793062 46.3129739,3.11267594 46.7241379,2.47977594" id="Twitter" stroke="none" fill="#9B9B9B" fill-rule="evenodd"></path>
</svg>
